M48
; DRILL file {KiCad 9.0.8} date 2026-04-13T10:55:30+0200
; FORMAT={-:-/ absolute / metric / decimal}
; #@! TF.CreationDate,2026-04-13T10:55:30+02:00
; #@! TF.GenerationSoftware,Kicad,Pcbnew,9.0.8
; #@! TF.FileFunction,Plated,1,2,PTH
FMAT,2
METRIC
; #@! TA.AperFunction,Plated,PTH,ViaDrill
T1C0.400
; #@! TA.AperFunction,Plated,PTH,ComponentDrill
T2C0.600
; #@! TA.AperFunction,Plated,PTH,ComponentDrill
T3C0.800
; #@! TA.AperFunction,Plated,PTH,ComponentDrill
T4C0.900
; #@! TA.AperFunction,Plated,PTH,ComponentDrill
T5C1.000
; #@! TA.AperFunction,Plated,PTH,ComponentDrill
T6C1.700
; #@! TA.AperFunction,Plated,PTH,ComponentDrill
T7C2.600
%
G90
G05
T1
X143.0Y-66.865
X145.0Y-69.405
X150.0Y-58.5
X155.0Y-69.405
X157.0Y-66.865
T3
X104.1Y-67.33
X104.1Y-72.33
X111.35Y-67.33
X111.35Y-72.33
X118.6Y-67.33
X118.6Y-72.33
X125.5Y-54.5
X130.5Y-54.5
X135.44Y-54.5
X143.06Y-54.5
X156.94Y-54.5
X164.56Y-54.5
X170.0Y-54.5
X172.5Y-54.5
X181.4Y-67.33
X181.4Y-72.33
X188.65Y-67.33
X188.65Y-72.33
X195.9Y-68.5
X195.9Y-71.0
T4
X104.1Y-78.2
X104.1Y-81.2
X104.1Y-84.2
X111.35Y-78.2
X111.35Y-81.2
X111.35Y-84.2
X118.6Y-55.45
X118.6Y-58.45
X118.6Y-61.45
X118.6Y-78.2
X118.6Y-81.2
X118.6Y-84.2
X181.4Y-55.45
X181.4Y-58.45
X181.4Y-61.45
X181.4Y-78.2
X181.4Y-81.2
X181.4Y-84.2
X188.65Y-78.2
X188.65Y-81.2
X188.65Y-84.2
X195.9Y-78.2
X195.9Y-81.2
X195.9Y-84.2
T5
X126.5Y-88.0
X129.0Y-88.0
X131.5Y-88.0
X140.5Y-88.0
X143.0Y-88.0
X145.5Y-88.0
X154.5Y-88.0
X157.0Y-88.0
X159.5Y-88.0
X168.5Y-88.0
X171.0Y-88.0
X173.5Y-88.0
T6
X108.45Y-58.45
X191.55Y-58.45
T7
X103.95Y-58.45
X108.45Y-53.45
X108.45Y-63.45
X191.55Y-53.45
X191.55Y-63.45
X196.05Y-58.45
T2
G00X145.68Y-53.0
M15
G01X145.68Y-52.4
M16
G05
G00X145.68Y-56.8
M15
G01X145.68Y-56.2
M16
G05
G00X154.32Y-53.0
M15
G01X154.32Y-52.4
M16
G05
G00X154.32Y-56.8
M15
G01X154.32Y-56.2
M16
G05
T5
G00X103.6Y-75.3
M15
G01X104.7Y-75.3
M16
G05
G00X103.6Y-87.1
M15
G01X104.7Y-87.1
M16
G05
G00X110.85Y-75.3
M15
G01X111.95Y-75.3
M16
G05
G00X110.85Y-87.1
M15
G01X111.95Y-87.1
M16
G05
G00X118.1Y-52.55
M15
G01X119.2Y-52.55
M16
G05
G00X118.1Y-64.35
M15
G01X119.2Y-64.35
M16
G05
G00X118.1Y-75.3
M15
G01X119.2Y-75.3
M16
G05
G00X118.1Y-87.1
M15
G01X119.2Y-87.1
M16
G05
G00X181.9Y-52.55
M15
G01X180.8Y-52.55
M16
G05
G00X181.9Y-64.35
M15
G01X180.8Y-64.35
M16
G05
G00X181.9Y-75.3
M15
G01X180.8Y-75.3
M16
G05
G00X181.9Y-87.1
M15
G01X180.8Y-87.1
M16
G05
G00X189.15Y-75.3
M15
G01X188.05Y-75.3
M16
G05
G00X189.15Y-87.1
M15
G01X188.05Y-87.1
M16
G05
G00X196.4Y-75.3
M15
G01X195.3Y-75.3
M16
G05
G00X196.4Y-87.1
M15
G01X195.3Y-87.1
M16
G05
M30
